Bermuda
1
	-65.12322	32.27499
	-65.12052	32.31317
	-65.11876	32.319
	-65.11305	32.35164
	-65.10112	32.38299
	-65.08329	32.41225
	-65.05994	32.43873
	-65.02919	32.46335
	-64.99375	32.48292
	-64.99336	32.48309
	-64.9793	32.48784
	-64.96046	32.4997
	-64.92595	32.51472
	-64.90683	32.52063
	-64.89936	32.52256
	-64.8515	32.52933
	-64.8496	32.53059
	-64.84772	32.53173
	-64.83888	32.53656
	-64.83744	32.53747
	-64.83392	32.54019
	-64.82917	32.54412
	-64.8173	32.55096
	-64.80889	32.55685
	-64.80786	32.55743
	-64.80056	32.56062
	-64.79487	32.56389
	-64.78056	32.56934
	-64.76258	32.57717
	-64.75991	32.57804
	-64.72974	32.58595
	-64.66991	32.59137
	-64.66911	32.59136
	-64.63058	32.58797
	-64.59323	32.57931
	-64.55805	32.56559
	-64.55766	32.5654
	-64.52351	32.54555
	-64.50389	32.52922
	-64.49863	32.52618
	-64.49805	32.52577
	-64.46557	32.49786
	-64.44653	32.47377
	-64.44566	32.47256
	-64.44345	32.46913
	-64.43897	32.46331
	-64.43715	32.45937
	-64.43504	32.45604
	-64.42141	32.42676
	-64.41337	32.39603
	-64.41195	32.37632
	-64.41098	32.37123
	-64.41123	32.33811
	-64.41173	32.33406
	-64.41418	32.32364
	-64.41789	32.30548
	-64.41919	32.30233
	-64.4199	32.29929
	-64.42492	32.28845
	-64.43078	32.27423
	-64.43325	32.27041
	-64.43515	32.26629
	-64.43579	32.26541
	-64.4366	32.26352
	-64.45812	32.23227
	-64.48245	32.2082
	-64.48463	32.20602
	-64.48458	32.20598
	-64.48505	32.20559
	-64.48633	32.20431
	-64.51718	32.18231
	-64.53269	32.17463
	-64.53793	32.17101
	-64.57436	32.15389
	-64.57722	32.15306
	-64.59161	32.14404
	-64.59811	32.14125
	-64.60064	32.13945
	-64.60853	32.13196
	-64.615	32.12677
	-64.62776	32.11732
	-64.63038	32.11552
	-64.66295	32.09707
	-64.6648	32.09613
	-64.66967	32.09425
	-64.67544	32.09112
	-64.68015	32.08917
	-64.68124	32.08886
	-64.68218	32.08839
	-64.68556	32.08621
	-64.68659	32.08565
	-64.69009	32.08411
	-64.69039	32.08391
	-64.70378	32.07791
	-64.72334	32.06836
	-64.72402	32.0681
	-64.73793	32.06376
	-64.73911	32.06322
	-64.7446	32.06167
	-64.76098	32.05655
	-64.76489	32.05593
	-64.77589	32.05282
	-64.81956	32.04697
	-64.85058	32.04745
	-64.85156	32.04736
	-64.86132	32.04763
	-64.86297	32.04752
	-64.86544	32.04759
	-64.88386	32.04836
	-64.88658	32.0486
	-64.92754	32.05543
	-64.96644	32.0683
	-64.98591	32.07841
	-64.99588	32.08313
	-64.99848	32.08458
	-65.00208	32.08681
	-65.0082	32.09073
	-65.01318	32.09329
	-65.02093	32.09855
	-65.03291	32.10757
	-65.03503	32.10928
	-65.04625	32.11896
	-65.04764	32.12025
	-65.05666	32.12908
	-65.0575	32.12995
	-65.06058	32.13292
	-65.06196	32.13438
	-65.08307	32.1608
	-65.099	32.18973
	-65.09987	32.19173
	-65.10477	32.2049
	-65.10771	32.21008
	-65.11864	32.24199
	-65.12322	32.27499
END
END
