Cape Verde
1
	-25.57311	17.04557
	-25.57232	17.03102
	-25.56825	17.00065
	-25.55942	16.97124
	-25.51464	16.85584
	-25.48973	16.8104
	-25.47896	16.7957
	-25.45754	16.77093
	-25.42645	16.74566
	-25.3865	16.72343
	-24.69037	16.42801
	-24.57521	16.37542
	-24.95255	14.91322
	-24.96113	14.8734
	-24.9653	14.83587
	-24.96217	14.79826
	-24.95185	14.76187
	-24.93471	14.72802
	-24.91137	14.69788
	-24.88264	14.67253
	-24.8537	14.65145
	-24.8182	14.63066
	-24.77915	14.61719
	-24.75863	14.61231
	-24.73192	14.60774
	-24.70482	14.60662
	-24.35814	14.61492
	-23.49534	14.69739
	-23.46091	14.70352
	-23.43915	14.70929
	-23.40834	14.72006
	-23.37968	14.73544
	-22.99337	14.98284
	-22.96832	15.00167
	-22.94652	15.02399
	-22.92849	15.04928
	-22.90782	15.08599
	-22.48433	16.00402
	-22.4691	16.05255
	-22.45763	16.11787
	-22.45478	16.157
	-22.45985	16.19592
	-22.47266	16.23315
	-22.48685	16.26395
	-22.69893	16.89586
	-22.71113	16.92439
	-22.72773	16.95078
	-22.74835	16.97441
	-22.77249	16.99472
	-22.80323	17.0168
	-22.83728	17.0367
	-22.87465	17.04999
	-22.91397	17.05621
	-22.9538	17.05512
	-24.28639	16.89065
	-24.90177	17.33832
	-24.94677	17.36313
	-25.01848	17.39193
	-25.05228	17.40235
	-25.08743	17.40712
	-25.12291	17.40609
	-25.1577	17.3993
	-25.19077	17.38694
	-25.43361	17.27232
	-25.46685	17.25269
	-25.49569	17.22745
	-25.51913	17.19749
	-25.54258	17.16079
	-25.56077	17.12462
	-25.57108	17.08569
	-25.57311	17.04557
END
END
