Faroe Islands
1
	-7.798383	62.09542
	-7.798271	62.09873
	-7.797697	62.10203
	-7.796664	62.10531
	-7.795175	62.10854
	-7.793237	62.11173
	-7.790858	62.11485
	-7.788049	62.11788
	-7.784821	62.12083
	-7.781188	62.12367
	-7.777165	62.12639
	-7.77277	62.12899
	-7.769303	62.13081
	-7.765779	62.13257
	-7.764498	62.1332
	-7.761427	62.13463
	-7.325276	62.32739
	-7.325444	62.37412
	-7.325275	62.37703
	-7.324643	62.38032
	-7.323549	62.38359
	-7.321996	62.38683
	-7.319991	62.39
	-7.317541	62.39311
	-7.314658	62.39614
	-7.311354	62.39907
	-7.307643	62.4019
	-7.30354	62.40461
	-7.299064	62.40719
	-7.294233	62.40962
	-7.289068	62.41191
	-7.283591	62.41403
	-7.277825	62.41598
	-7.271796	62.41776
	-7.265529	62.41934
	-7.259051	62.42074
	-7.25239	62.42193
	-7.245575	62.42292
	-7.238635	62.42369
	-7.231599	62.42426
	-7.225226	62.42458
	-6.567579	62.44752
	-6.560436	62.44762
	-6.553294	62.4475
	-6.546184	62.44717
	-6.539136	62.44662
	-6.532181	62.44586
	-6.525349	62.44489
	-6.337777	62.41432
	-6.263411	62.40218
	-6.257385	62.4011
	-6.253489	62.4003
	-6.208143	62.39041
	-6.205561	62.38983
	-6.199297	62.38825
	-6.19327	62.38648
	-6.187506	62.38453
	-6.18203	62.38241
	-6.176865	62.38012
	-6.172033	62.37769
	-6.167556	62.37511
	-6.163452	62.37241
	-6.159738	62.36958
	-6.158751	62.36875
	-6.154459	62.36507
	-6.152139	62.36297
	-6.149254	62.35994
	-6.146801	62.35683
	-6.144792	62.35366
	-6.143234	62.35043
	-6.142134	62.34716
	-6.141497	62.34386
	-6.141326	62.34055
	-6.141621	62.33724
	-6.14238	62.33395
	-6.143395	62.33116
	-6.547622	61.35049
	-6.546564	61.34734
	-6.545905	61.34405
	-6.545696	61.34074
	-6.545939	61.33743
	-6.546631	61.33414
	-6.54777	61.33087
	-6.54935	61.32765
	-6.551366	61.32448
	-6.553807	61.32138
	-6.556665	61.31837
	-6.559925	61.31546
	-6.563575	61.31265
	-6.567598	61.30996
	-6.571977	61.30741
	-6.576694	61.30499
	-6.581728	61.30273
	-6.587057	61.30064
	-6.59266	61.29872
	-6.598511	61.29697
	-6.604587	61.29541
	-6.61086	61.29405
	-6.617305	61.29289
	-6.623893	61.29193
	-6.630597	61.29119
	-6.633985	61.29092
	-6.634802	61.29077
	-6.64139	61.28981
	-6.648093	61.28906
	-6.654883	61.28853
	-6.661732	61.28821
	-6.66861	61.2881
	-6.675487	61.28821
	-6.682335	61.28853
	-6.689125	61.28908
	-6.695826	61.28983
	-6.702411	61.29079
	-6.708852	61.29196
	-6.715121	61.29332
	-6.721192	61.29488
	-6.727038	61.29663
	-6.732635	61.29856
	-6.737958	61.30066
	-6.742986	61.30292
	-6.747695	61.30533
	-6.752067	61.30789
	-6.754523	61.30949
	-6.958057	61.44699
	-6.959631	61.44808
	-6.961878	61.44974
	-7.781538	62.06911
	-7.783027	62.07024
	-7.786457	62.07314
	-7.789477	62.07613
	-7.792074	62.07921
	-7.794237	62.08236
	-7.795955	62.08557
	-7.797223	62.08883
	-7.798033	62.09212
	-7.798383	62.09542
END
END
