Malta
1
	13.93242	36.07147
	13.93243	36.06841
	13.93304	36.05512
	13.93444	36.04367
	13.9343	36.03585
	13.93491	36.02256
	13.93659	36.00933
	13.93933	35.99621
	13.94312	35.98327
	13.94794	35.97056
	13.95377	35.95813
	13.9584	35.9497
	13.96177	35.94399
	13.96954	35.93229
	13.97823	35.92102
	13.98781	35.91024
	13.99824	35.89999
	14.00946	35.89032
	14.02143	35.88126
	14.0341	35.87286
	14.04742	35.86515
	14.06133	35.85817
	14.07576	35.85193
	14.08521	35.84842
	14.0866	35.84363
	14.09139	35.83091
	14.09719	35.81848
	14.10351	35.80714
	14.10574	35.80265
	14.11252	35.79055
	14.12025	35.77884
	14.12891	35.76756
	14.13391	35.7617
	14.14344	35.75091
	14.14801	35.74623
	14.14918	35.74506
	14.155	35.73948
	14.16618	35.72979
	14.17811	35.72072
	14.18017	35.71925
	14.18968	35.71281
	14.19717	35.70725
	14.2098	35.69883
	14.21444	35.696
	14.21918	35.69297
	14.23035	35.68639
	14.23147	35.68559
	14.24409	35.67716
	14.25736	35.66943
	14.27121	35.66242
	14.28286	35.65728
	14.28706	35.65515
	14.29376	35.65188
	14.30814	35.64562
	14.32299	35.64014
	14.33825	35.63546
	14.34147	35.63458
	14.354	35.63141
	14.35529	35.63104
	14.35607	35.63078
	14.37132	35.62609
	14.38692	35.62223
	14.40278	35.61921
	14.40866	35.61831
	14.40945	35.61814
	14.42532	35.61511
	14.43323	35.61393
	14.44604	35.61082
	14.45013	35.60995
	14.466	35.60692
	14.48206	35.60474
	14.49827	35.60342
	14.51455	35.60297
	14.51576	35.60297
	14.53171	35.60339
	14.53477	35.60356
	14.54839	35.60397
	14.5646	35.60525
	14.58068	35.60739
	14.59655	35.61038
	14.61215	35.61422
	14.61537	35.6151
	14.63063	35.61975
	14.64549	35.62521
	14.65988	35.63145
	14.66701	35.63492
	14.67008	35.63645
	14.67126	35.63692
	14.68566	35.64316
	14.69952	35.65014
	14.7128	35.65786
	14.72544	35.66626
	14.73737	35.67532
	14.74856	35.685
	14.75545	35.69163
	14.75954	35.69583
	14.76909	35.70662
	14.77776	35.71789
	14.78551	35.72959
	14.7866	35.73139
	14.79319	35.74315
	14.79837	35.7541
	14.80262	35.76191
	14.80368	35.76399
	14.80873	35.77492
	14.81354	35.78764
	14.81731	35.80058
	14.819	35.80804
	14.8193	35.80951
	14.82034	35.81516
	14.82177	35.82052
	14.82451	35.83363
	14.82618	35.84686
	14.82679	35.86016
	14.8268	35.86232
	14.82633	35.87521
	14.8248	35.88846
	14.82221	35.90159
	14.81857	35.91456
	14.81389	35.92731
	14.80896	35.93825
	14.80557	35.94535
	14.80146	35.95306
	14.8006	35.95463
	14.79567	35.96337
	14.78802	35.97512
	14.77943	35.98645
	14.76995	35.99729
	14.76521	36.0022
	14.76228	36.00513
	14.75668	36.01054
	14.74553	36.02029
	14.73362	36.02941
	14.721	36.03789
	14.71791	36.0398
	14.71601	36.04117
	14.71073	36.04472
	14.70943	36.04562
	14.70868	36.04617
	14.69605	36.05464
	14.6844	36.06154
	14.67306	36.07144
	14.66113	36.08056
	14.64911	36.08864
	14.6435	36.09225
	14.63319	36.09838
	14.63264	36.09872
	14.61934	36.1065
	14.60544	36.11355
	14.591	36.11984
	14.58244	36.12312
	14.56911	36.1309
	14.5552	36.13795
	14.55096	36.13985
	14.54544	36.14718
	14.5425	36.15084
	14.53296	36.16166
	14.52257	36.17196
	14.51632	36.17754
	14.51261	36.18107
	14.50668	36.18636
	14.50587	36.18718
	14.5	36.19282
	14.48879	36.20254
	14.47683	36.21164
	14.46415	36.22009
	14.45081	36.22784
	14.43687	36.23487
	14.4224	36.24115
	14.41573	36.24372
	14.40509	36.24752
	14.39156	36.2517
	14.38745	36.25311
	14.37892	36.25583
	14.37781	36.25635
	14.36332	36.26262
	14.34836	36.2681
	14.33299	36.27278
	14.31726	36.27664
	14.30352	36.27928
	14.29626	36.28053
	14.28005	36.28268
	14.2792	36.28277
	14.27241	36.28357
	14.25606	36.28485
	14.24001	36.28527
	14.22287	36.28527
	14.20645	36.28481
	14.1901	36.28348
	14.17468	36.28141
	14.16802	36.28041
	14.15993	36.27897
	14.1539	36.27805
	14.13792	36.275
	14.12785	36.27261
	14.11939	36.27088
	14.10369	36.26699
	14.08833	36.26226
	14.07339	36.25674
	14.05894	36.25043
	14.04502	36.24337
	14.03171	36.23558
	14.01906	36.2271
	14.00712	36.21797
	13.99594	36.20823
	13.98558	36.19791
	13.97608	36.18707
	13.97346	36.18381
	13.96631	36.17428
	13.95864	36.16252
	13.95776	36.16105
	13.95106	36.14891
	13.94535	36.13644
	13.94066	36.12369
	13.93701	36.11072
	13.93441	36.09759
	13.93288	36.08435
	13.93242	36.07147
END
END
